<svg width="90" height="90" fill="none" xmlns="http://www.w3.org/2000/svg"><path d="M29.74 30.53c2.1-2.05 4.73-3.49 7.59-4.16a3.787 3.787 0 0 1 .81-4.12L45 15.32V5H12.33c-1.94 0-3.81.77-5.18 2.15A7.344 7.344 0 0 0 5 12.33V45h10.26l14.48-14.47z" fill="#807B76"/><path d="M60.39 59.33c-2.16 2.1-4.85 3.56-7.79 4.21l.07.13c.29.69.37 1.46.22 2.19-.14.74-.5 1.41-1.03 1.95L45 74.74V85h32.67c1.94 0 3.81-.77 5.18-2.15A7.344 7.344 0 0 0 85 77.67V45H74.69l-14.3 14.33z" fill="#666463"/><path d="M45 76.57V85h32.67c1.94 0 3.81-.77 5.18-2.15A7.344 7.344 0 0 0 85 77.67V45h-8.17L45 76.57z" fill="#807B76"/><path d="M29.68 73.05c-.76.67-1.74 1.04-2.75 1.04s-1.99-.37-2.75-1.04L17 65.85A4.21 4.21 0 0 1 15.88 63c0-1.05.4-2.08 1.12-2.85l21.13-21.14c.55-.5 1.23-.85 1.96-1a4.22 4.22 0 0 1 2.2.13l7.62 7.58L56 39.59l-7.54-7.58h-.21a12.479 12.479 0 0 0-15.86 1.29L11.15 54.49a12.485 12.485 0 0 0-3.55 8.73c0 3.26 1.27 6.39 3.55 8.72l7 6.95c2.33 2.27 5.46 3.55 8.72 3.55 3.26 0 6.39-1.27 8.72-3.55l13.57-13.74c-3.22 0-6.37-.92-9.07-2.66L29.68 73.06v-.01z" fill="#D1CCC5"/><path d="m78.85 18-7-7a12.504 12.504 0 0 0-8.74-3.49c-3.26.02-6.38 1.32-8.7 3.61l-13.57 13.8c3.25-.28 6.49.67 9.07 2.67L60.49 17c.77-.72 1.79-1.13 2.85-1.13s2.08.4 2.85 1.13l7 7c.73.77 1.13 1.79 1.13 2.85s-.41 2.08-1.13 2.85L51.87 50.86c-.55.51-1.23.86-1.96 1.01-.73.15-1.49.1-2.2-.14l-6-6-6 6.16 6 6h.21c2.38 1.66 5.27 2.44 8.16 2.2 2.89-.24 5.62-1.47 7.7-3.49l21.07-21.14c2.28-2.33 3.55-5.47 3.55-8.73 0-3.26-1.28-6.4-3.55-8.73z" fill="#D1CCC5"/><path d="M32.2 34.96 13.54 53.62a1.75 1.75 0 0 0 0 2.47c.68.68 1.79.68 2.47 0l18.66-18.66c.68-.68.68-1.79 0-2.47a1.75 1.75 0 0 0-2.47 0zM55.93 11.24l-8.39 8.39a1.75 1.75 0 0 0 0 2.47c.68.68 1.79.68 2.47 0l8.39-8.39c.68-.68.68-1.79 0-2.47a1.75 1.75 0 0 0-2.47 0zM72.92 31.57 54.26 50.23a1.75 1.75 0 0 0 0 2.47c.68.68 1.79.68 2.47 0l18.66-18.66c.68-.68.68-1.79 0-2.47a1.75 1.75 0 0 0-2.47 0zM38.33 66.15l-8.39 8.39a1.75 1.75 0 0 0 0 2.47c.68.68 1.79.68 2.47 0l8.39-8.39c.68-.68.68-1.79 0-2.47a1.75 1.75 0 0 0-2.47 0z" fill="#E8E6E1"/><path d="m74.69 45-14.3 14.33c-2.16 2.1-4.85 3.56-7.79 4.21l.07.13c.29.69.37 1.46.22 2.19-.14.74-.5 1.41-1.03 1.95L45 74.74v8.83L83.57 45h-8.88z" fill="#4A4743"/></svg>