<svg xmlns="http://www.w3.org/2000/svg" width="90" height="90" fill="none"><path fill="#8E752A" d="M45.198 84.943c27.676 0 39.19-8.134 39.19-8.134l.589-15.556c0-3.749-.905-30.138-3.96-27.739L62.166 46.671 49.12 20.957c-1.17-3.036-2.677-3.748-3.77-3.748-1.094 0-2.753.787-3.771 3.748L28.23 46.671 9.38 33.514c-3.054-2.399-4.006 25.884-3.856 29.632l.804 13.663s11.196 7.872 38.871 8.134Z"/><path fill="#F3C535" d="M45.256 72.763c27.525 0 39.562-8.138 39.562-8.138l1.688-40.875c0-3.75-2.588-4.837-5.625-2.438L62.13 34.475 49.156 8.75C47.993 5.713 46.493 5 45.406 5c-1.088 0-2.738.787-3.75 3.75L28.38 34.475 9.63 21.312C6.593 18.913 3.856 20 4.006 23.75l1.687 40.875s12.038 7.875 39.563 8.138Z"/></svg>