<svg width="90" height="90" fill="none" xmlns="http://www.w3.org/2000/svg"><path d="M49.041 79.704c-1.206 0-2.457-.27-3.717-.801-.45-.144-.972-.531-1.629-1.08l-1.107-.954s-30.42-20.844-31.833-22.392c-1.404-1.557-2.412-5.229-2.997-5.958-.999-1.251-2.817-2.871-5.112-4.545C.576 42.462.225 41.112.045 39.969c-.198-1.341.351-3.249.531-3.789l6.615-18.918c.261-.657.918-2.025 2.25-2.799.603-.387 1.521-.711 2.565-.711.882 0 1.764.225 2.619.666 2.025 1.035 4.797 2.43 6.669 3.312l2.115.99 22.959 8.307.549.297c3.294 1.773 9.459 5.049 13.653 7.011 2.502 1.152 6.831 4.392 11.808 8.199 3.771 2.88 5.805 4.41 7.047 5.022l.27.126.225.198c4.077 3.474 4.842 7.074 2.259 10.719-.9 1.269-2.637 2.79-5.823 2.79-.18 0-.351 0-.531-.009 0 1.458-.495 3.042-1.872 4.383-1.656 1.638-3.78 2.502-6.147 2.502-.828 0-1.611-.108-2.313-.261-.126 1.341-.585 2.853-1.737 4.05-1.566 1.62-4.194 2.664-6.714 2.664-.333 0-.657-.018-.972-.054a7.346 7.346 0 0 1-1.071 2.052c-1.404 1.899-3.573 2.988-5.949 2.988h-.009z" fill="#8D694B"/><path d="M60.876 34.794c.576.207 1.26.495 2.016.855-.882-.558-1.674-1.017-2.331-1.323-4.203-1.962-10.359-5.238-13.653-7.011l-.549-.297-21.222-7.677a21.111 21.111 0 0 0-2.052 1.935c-.954 1.017-2.313 3.186-3.042 10.152-.36 3.42-.405 6.471-.378 6.606l-.117 1.458.774.864c.855.954 2.313 1.341 4.347 1.143 1.377-.126 2.772-.522 3.843-1.062 3.15-1.611 4.914-6.03 6.093-8.964.234-.576.396-1.008.54-1.341 2.295-.288 8.73-1.017 10.989-1.269 2.061.882 9.846 4.185 14.751 5.922l-.009.009z" fill="#6B4D3A"/><path d="M72.036 42.408c-4.041-3.078-8.973-6.489-11.637-7.731-4.725-2.196-12.168-6.201-14.139-7.263-2.268.036-8.748.162-11.052.243-.18.315-.378.738-.657 1.287-1.44 2.808-3.609 7.038-6.894 8.352-1.107.441-2.547.702-3.924.702-2.034 0-3.456-.522-4.221-1.548l-.693-.927.252-1.458-.009.027c-.018 0 .297-3.105.99-6.561 1.377-6.867 2.934-8.901 3.978-9.828 3.456-3.06 6.21-3.969 10.728-4.734 1.206-.207 2.799-.612 4.518-1.035 3.951-.999 8.028-2.034 10.818-2.034.801 0 1.467.081 2.043.252 2.466.72 7.992 2.259 11.322 2.916 1.8.351 3.672 1.152 5.319 1.872 1.125.486 2.529 1.089 3.096 1.134.684-.054 3.213-1.26 4.563-1.899.747-.351 1.404-.513 2.061-.513.936 0 1.845.297 2.7.873 1.584 1.053 2.079 2.754 2.16 3.087l6.291 19.557c.063.063.468 1.557.297 2.844-.135 1.026-.549 2.367-2.421 3.609-4.392 2.889-5.148 3.654-5.22 3.726l-1.71 1.125s-3.663-2.34-8.568-6.075h.009z" fill="#E3C29C"/><path d="M36.756 80.1c-1.44 0-2.763-.378-3.834-1.089a7.67 7.67 0 0 1-2.214-2.259 8.15 8.15 0 0 1-2.151.297c-1.305 0-2.484-.36-3.402-1.026-1.629-1.188-2.772-2.763-3.303-4.428h-.315c-.909 0-1.764-.18-2.556-.522-1.98-.873-3.348-2.799-3.744-4.914h-.108a10.117 10.117 0 0 1-1.017-.126c-1.647-.324-3.087-1.323-4.068-2.826-1.134-1.737-1.557-3.969-1.116-5.967.675-3.042 3.546-6.201 7.191-6.201.378 0 .765.036 1.143.117 2.286.441 3.906 2.07 4.725 4.023a8.14 8.14 0 0 1 2.142-.288c1.215 0 2.367.288 3.339.837 1.269.702 2.169 1.881 2.637 3.312a7.246 7.246 0 0 1 1.467-.153c1.512 0 2.925.513 4.095 1.467 1.665 1.368 2.43 3.465 2.241 5.985 1.404.234 2.718.81 3.627 1.638 3.204 2.898 2.304 6.498 1.971 7.848-.684 2.763-3.978 4.266-6.732 4.266l-.018.009z" fill="#D5A47D"/><path d="M43.857 73.188c0-1.584-.459-3.51-2.33-5.202-.91-.819-2.224-1.404-3.628-1.638.19-2.52-.576-4.617-2.24-5.985a6.399 6.399 0 0 0-4.096-1.467c-.486 0-.98.054-1.467.153-.468-1.431-1.377-2.61-2.637-3.312-.972-.549-2.124-.837-3.339-.837a8.14 8.14 0 0 0-2.142.288c-.819-1.953-2.439-3.582-4.725-4.023a5.538 5.538 0 0 0-1.143-.117c-1.395 0-2.664.459-3.753 1.206-.117 1.701-2.106 5.481.702 8.442 2.808 2.961 5.292-.603 5.625-.585h.108c-.846 1.818-2.286 4.185.531 6.678 2.745 2.43 5.985-1.251 6.093-1.251-.459 1.683-1.404 5.067 1.854 7.29s6.291-1.944 7.011-2.124c.558.882-.747 4.194 2.907 6.273 3.654 2.07 6.273-1.854 6.678-3.78l-.009-.009z" fill="#E3C29C"/><path d="M73.836 32.958c-11.493 1.287-20.727-7.353-24.867-7.506-4.149-.144-13.761 2.205-13.761 2.205 2.304-.072 8.793-.207 11.052-.243 1.971 1.062 9.414 5.067 14.139 7.263 2.673 1.251 7.596 4.653 11.637 7.731 0 0 9.018-10.26 1.8-9.459v.009zM76.266 45.522c2.619 1.872 4.338 2.97 4.338 2.97l1.71-1.125c.072-.072.819-.846 5.22-3.726.306-.207.531-.414.756-.621-3.348.963-12.015 2.511-12.024 2.511v-.009z" fill="#D5A47D"/></svg>