<svg width="90" height="90" fill="none" xmlns="http://www.w3.org/2000/svg"><g clip-path="url(#a)"><path d="M36.7 28.56 51.49 0h15.65c3.85 0 6.98 3.13 6.98 6.98v2.77c0 3.56-2.39 7.78-5.45 9.62L53.24 30.22c-1.49.89-6.18 1.44-8.24 1.44-2.06 0-4-.49-5.49-1.38l-2.81-1.72z" fill="#45753C"/><path d="M53.3 20.26H36.69c-4.57 0-8.3 3.72-8.3 8.3v5.54c0 4.58 3.73 8.3 8.3 8.3H53.3c4.57 0 8.3-3.72 8.3-8.3v-5.54c0-4.58-3.73-8.3-8.3-8.3zm0 11.07v1.11H36.7v-3.88h16.6v2.77z" fill="#CF8D1B"/><path d="M53.3 28.56 38.51 0H22.86c-3.85 0-6.98 3.13-6.98 6.98v2.77c0 3.56 2.39 7.78 5.45 9.62l15.43 10.85c1.49.89 6.18 1.44 8.24 1.44 2.06 0 4-.49 5.49-1.38l2.81-1.72z" fill="#81B64C"/><path d="M74.62 66.583c3.876-16.359-6.243-32.762-22.601-36.638-16.359-3.877-32.762 6.243-36.639 22.601-3.876 16.359 6.244 32.762 22.602 36.638 16.359 3.877 32.762-6.243 36.638-22.601z" fill="#E3AA24"/><path d="M64.57 79.121c10.806-10.806 10.806-28.325 0-39.131-10.805-10.806-28.325-10.806-39.13 0-10.806 10.806-10.806 28.325 0 39.131 10.805 10.806 28.325 10.806 39.13 0z" fill="#F7C631"/><path d="M57.06 36.01c0-.46-.06-.9-.07-1.35-3.64-1.76-7.69-2.77-11.99-2.77-15.26 0-27.67 12.42-27.67 27.67 0 10.28 5.65 19.25 13.98 24.02C46.8 73.4 57.06 55.89 57.06 36.01z" fill="#FFF599"/></g><defs><clipPath id="a"><path fill="#fff" d="M0 0h90v90H0z"/></clipPath></defs></svg>